<?xml version="1.0" encoding="UTF-8" standalone="no"?><!DOCTYPE svg PUBLIC "-//W3C//DTD SVG 1.1//EN" "http://www.w3.org/Graphics/SVG/1.1/DTD/svg11.dtd"><svg width="100%" height="100%" viewBox="0 0 240 240" version="1.1" xmlns="http://www.w3.org/2000/svg" xmlns:xlink="http://www.w3.org/1999/xlink" xml:space="preserve" xmlns:serif="http://www.serif.com/" style="fill-rule:evenodd;clip-rule:evenodd;stroke-linejoin:round;stroke-miterlimit:2;"><g><path d="M79.977,124.141l-74.289,-4.141l74.289,-4.141c-0.139,1.361 -0.211,2.743 -0.211,4.141c0,1.398 0.071,2.779 0.211,4.141Zm3.29,-20.568l-62.264,-40.729l66.413,33.562c-1.617,2.228 -3.011,4.628 -4.149,7.167Zm13.139,-16.157l-33.562,-66.413l40.729,62.264c-2.539,1.138 -4.939,2.532 -7.167,4.149Zm19.454,-7.439l4.141,-74.289l4.141,74.289c-1.361,-0.139 -2.743,-0.211 -4.141,-0.211c-1.398,0 -2.779,0.071 -4.141,0.211Zm20.568,3.29l40.729,-62.264l-33.562,66.413c-2.228,-1.617 -4.628,-3.011 -7.167,-4.149Zm16.157,13.139l66.413,-33.562l-62.264,40.729c-1.138,-2.539 -2.532,-4.939 -4.149,-7.167Zm7.439,19.454l74.289,4.141l-74.289,4.141c0.139,-1.361 0.211,-2.743 0.211,-4.141c0,-1.398 -0.071,-2.779 -0.211,-4.141Zm-3.29,20.568l62.264,40.729l-66.413,-33.562c1.617,-2.228 3.011,-4.628 4.149,-7.167Zm-13.139,16.157l33.562,66.413l-40.729,-62.264c2.539,-1.138 4.939,-2.532 7.167,-4.149Zm-19.454,7.439l-4.141,74.289l-4.141,-74.289c1.361,0.139 2.743,0.211 4.141,0.211c1.398,0 2.779,-0.071 4.141,-0.211Zm-20.568,-3.29l-40.729,62.264l33.562,-66.413c2.228,1.617 4.628,3.011 7.167,4.149Zm-16.157,-13.139l-66.413,33.562l62.264,-40.729c1.138,2.539 2.532,4.939 4.149,7.167Z" style="fill:#e87a20;"/><path d="M152.912,138.339c-6.789,11.189 -19.088,18.671 -33.121,18.671c-2.192,0 -4.342,-0.183 -6.435,-0.533c11.116,1.15 22.617,-2.779 30.768,-11.632c13.085,-14.213 12.17,-36.342 -2.044,-49.426c-13.534,-12.459 -34.606,-11.587 -47.065,1.946c-11.834,12.854 -11.006,32.867 1.848,44.7c12.175,11.208 31.131,10.424 42.339,-1.751c10.582,-11.495 9.842,-29.392 -1.653,-39.974c-10.816,-9.956 -27.655,-9.26 -37.612,1.555c-9.331,10.136 -8.679,25.917 1.457,35.248c9.457,8.705 24.18,8.097 32.886,-1.36c8.08,-8.777 7.515,-22.442 -1.262,-30.521c-8.098,-7.454 -20.705,-6.933 -28.16,1.164c-6.829,7.418 -6.351,18.967 1.067,25.795c6.739,6.203 17.23,5.769 23.433,-0.969c5.578,-6.059 5.188,-15.492 -0.871,-21.069c-5.379,-4.952 -13.755,-4.606 -18.707,0.773c-4.327,4.7 -4.024,12.017 0.676,16.343c4.02,3.701 10.28,3.442 13.981,-0.578c3.075,-3.341 2.86,-8.542 -0.48,-11.617c-2.661,-2.45 -6.805,-2.278 -9.254,0.383c-1.824,1.982 -1.697,5.067 0.285,6.891c1.302,1.199 3.329,1.115 4.528,-0.187c0.573,-0.622 0.533,-1.592 -0.09,-2.165c-0.622,-0.573 -1.592,-0.533 -2.165,0.09c-0.052,0.057 -0.141,0.061 -0.198,0.008c-0.737,-0.678 -0.784,-1.825 -0.106,-2.561c1.304,-1.416 3.508,-1.507 4.924,-0.204c2.096,1.929 2.231,5.192 0.301,7.287c-2.555,2.775 -6.876,2.954 -9.651,0.399c-3.455,-3.18 -3.677,-8.559 -0.497,-12.013c3.806,-4.134 10.243,-4.4 14.377,-0.594c4.814,4.431 5.124,11.926 0.692,16.739c-5.057,5.493 -13.61,5.847 -19.103,0.79c-6.173,-5.682 -6.57,-15.293 -0.888,-21.466c6.308,-6.852 16.977,-7.293 23.83,-0.985c7.532,6.934 8.017,18.66 1.083,26.192c-7.559,8.211 -20.344,8.74 -28.556,1.181c-8.891,-8.185 -9.463,-22.027 -1.278,-30.918c8.811,-9.57 23.712,-10.186 33.282,-1.376c10.25,9.436 10.91,25.394 1.474,35.644c-10.062,10.929 -27.079,11.633 -38.009,1.572c-11.609,-10.687 -12.357,-28.761 -1.669,-40.37c11.313,-12.288 30.446,-13.079 42.735,-1.767c12.968,11.938 13.803,32.128 1.865,45.096c-12.564,13.647 -33.813,14.526 -47.461,1.962c-14.328,-13.189 -15.25,-35.495 -2.06,-49.822c13.815,-15.006 37.18,-15.972 52.187,-2.158c12.935,11.908 15.873,30.615 8.377,45.588Z" style="fill:#e87a20;"/></g></svg>